<?xml version="1.0" encoding="UTF-8"?>
<svg width="457px" height="82px" viewBox="0 0 457 82" version="1.1" xmlns="http://www.w3.org/2000/svg" xmlns:xlink="http://www.w3.org/1999/xlink">
    <title>district-leader-logo</title>
    <defs>
        <pattern id="pattern-1" patternUnits="objectBoundingBox" x="-3.19170669e-14%" width="100%" height="100%">
            <use xlink:href="#image-2" transform="scale(0.452008929,0.452008929)"></use>
        </pattern>
    </defs>
    <g id="district-leader-logo" stroke="none" stroke-width="1" fill="none" fill-rule="evenodd">
        <g id="Group">
            <g id="대청비전-구역장" transform="translate(0, 9)" fill="#212121" fill-rule="nonzero">
                <path d="M24.336,1.368 L34.344,1.368 L34.344,22.248 L37.44,22.248 L37.44,1.368 L46.944,1.368 L46.944,63.288 L37.44,63.288 L37.44,31.536 L34.344,31.536 L34.344,61.992 L24.336,61.992 L24.336,1.368 Z M20.952,4.608 L20.952,13.32 L9.864,13.32 L9.864,43.992 C13.224,43.8 15.864,43.452 17.784,42.948 C19.704,42.444 21.24,41.904 22.392,41.328 L22.392,50.112 C20.424,51.072 18.336,51.744 16.128,52.128 C13.92,52.512 11.664,52.704 9.36,52.704 L0,52.704 L0,4.608 L20.952,4.608 Z" id="Shape"></path>
                <path d="M62.3223216,45.36 C63.0903216,43.68 64.1463216,42.264 65.4903216,41.112 C66.7863216,39.96 68.3343216,39.084 70.1343216,38.484 C71.9343216,37.884 73.8663216,37.584 75.9303216,37.584 L81.9063216,37.584 C86.3703216,37.584 90.0903216,38.748 93.0663216,41.076 C96.0423216,43.404 97.5303216,46.8 97.5303216,51.264 C97.5303216,55.728 96.0663216,59.052 93.1383216,61.236 C90.2103216,63.42 86.4663216,64.512 81.9063216,64.512 L76.0023216,64.512 C73.9863216,64.512 72.0783216,64.248 70.2783216,63.72 C68.4783216,63.192 66.9063216,62.376 65.5623216,61.272 C64.1703216,60.168 63.0903216,58.788 62.3223216,57.132 C61.5543216,55.476 61.1703216,53.52 61.1703216,51.264 C61.1703216,49.056 61.5543216,47.088 62.3223216,45.36 Z M54.6183216,26.784 C56.0583216,25.44 57.4743216,24.144 58.8663216,22.896 C60.2103216,21.6 61.4943216,20.364 62.7183216,19.188 C63.9423216,18.012 65.0103216,16.896 65.9223216,15.84 C66.2103216,15.504 66.4383216,15.204 66.6063216,14.94 C66.7743216,14.676 66.8583216,14.376 66.8583216,14.04 L52.5303216,14.04 L52.5303216,5.544 L60.0183216,5.544 L60.0183216,0 L70.0263216,0 L70.0263216,5.544 L78.0903216,5.544 L78.0903216,9.576 C78.0903216,11.016 78.0663216,12.24 78.0183216,13.248 C77.9703216,14.256 77.8263216,15.168 77.5863216,15.984 C77.3463216,16.8 76.9623216,17.628 76.4343216,18.468 C75.9063216,19.308 75.1863216,20.256 74.2743216,21.312 L73.6263216,22.032 L83.6343216,30.312 L77.5863216,37.224 L67.0743216,28.296 C65.7783216,29.64 64.2423216,31.152 62.4663216,32.832 C60.6903216,34.512 58.7223216,36.24 56.5623216,38.016 L50.2983216,30.816 C51.6903216,29.472 53.1303216,28.128 54.6183216,26.784 Z M79.6023216,15.984 L87.1623216,15.984 L87.1623216,1.368 L97.0263216,1.368 L97.0263216,36.288 L87.1623216,36.288 L87.1623216,24.624 L79.6023216,24.624 L79.6023216,15.984 Z M71.1783216,51.264 C71.1783216,52.8 71.6223216,53.988 72.5103216,54.828 C73.3983216,55.668 75.1383216,56.088 77.7303216,56.088 L80.3223216,56.088 C82.9143216,56.088 84.7503216,55.68 85.8303216,54.864 C86.9103216,54.048 87.4503216,52.848 87.4503216,51.264 C87.4503216,49.68 86.8863216,48.408 85.7583216,47.448 C84.6303216,46.488 82.7703216,46.008 80.1783216,46.008 L77.6583216,46.008 C75.2583216,46.008 73.5783216,46.488 72.6183216,47.448 C71.6583216,48.408 71.1783216,49.68 71.1783216,51.264 Z" id="Shape"></path>
                <path d="M103.908643,4.536 L113.844643,4.536 L113.844643,21.384 L121.548643,21.384 L121.548643,4.536 L131.412643,4.536 L131.412643,52.632 L103.908643,52.632 L103.908643,4.536 Z M148.404643,1.368 L148.404643,63.288 L138.540643,63.288 L138.540643,1.368 L148.404643,1.368 Z M113.844643,29.808 L113.844643,44.208 L121.548643,44.208 L121.548643,29.808 L113.844643,29.808 Z" id="Shape"></path>
                <path d="M157.518965,27.576 C159.054965,26.04 160.518965,24.552 161.910965,23.112 C163.302965,21.624 164.586965,20.232 165.762965,18.936 C166.938965,17.64 167.934965,16.44 168.750965,15.336 C169.086965,14.904 169.326965,14.52 169.470965,14.184 C169.614965,13.848 169.686965,13.488 169.686965,13.104 L155.142965,13.104 L155.142965,4.608 L180.702965,4.608 L180.702965,8.64 C180.702965,10.08 180.666965,11.316 180.594965,12.348 C180.522965,13.38 180.366965,14.328 180.126965,15.192 C179.838965,16.056 179.454965,16.92 178.974965,17.784 C178.494965,18.648 177.822965,19.632 176.958965,20.736 L175.518965,22.536 L186.246965,31.68 L180.198965,38.592 L169.182965,29.304 C167.982965,30.792 166.518965,32.424 164.790965,34.2 C163.062965,35.976 161.214965,37.704 159.246965,39.384 L152.982965,32.184 C154.470965,30.696 155.982965,29.16 157.518965,27.576 Z M189.774965,16.056 L189.774965,1.368 L199.638965,1.368 L199.638965,46.944 L189.774965,46.944 L189.774965,24.768 L181.710965,24.768 L181.710965,16.056 L189.774965,16.056 Z M173.934965,42.696 L173.934965,55.368 L200.070965,55.368 L200.070965,64.008 L164.070965,64.008 L164.070965,42.696 L173.934965,42.696 Z" id="Shape"></path>
                <path d="M219.955608,40.896 L219.955608,32.184 L249.115608,32.184 C250.027608,30.84 250.675608,29.328 251.059608,27.648 C251.443608,25.968 251.635608,24.768 251.635608,24.048 L251.635608,10.872 L225.859608,10.872 L225.859608,2.16 L261.499608,2.16 L261.499608,23.976 C261.499608,25.128 261.331608,26.544 260.995608,28.224 C260.659608,29.904 260.107608,31.224 259.339608,32.184 L269.347608,32.184 L269.347608,40.896 L249.835608,40.896 L249.835608,63.144 L239.971608,63.144 L239.971608,40.896 L219.955608,40.896 Z" id="Path"></path>
                <path d="M272.84593,10.656 C273.42193,9.12 274.30993,7.704 275.50993,6.408 C276.66193,5.064 278.16193,3.96 280.00993,3.096 C281.85793,2.232 284.05393,1.8 286.59793,1.8 C289.81393,1.8 292.48993,2.436 294.62593,3.708 C296.76193,4.98 298.40593,6.48 299.55793,8.208 L307.76593,8.208 L307.76593,1.512 L317.62993,1.512 L317.62993,36.36 L307.76593,36.36 L307.76593,29.16 L298.83793,29.16 C297.63793,30.648 296.02993,31.884 294.01393,32.868 C291.99793,33.852 289.52593,34.344 286.59793,34.344 C284.05393,34.344 281.85793,33.924 280.00993,33.084 C278.16193,32.244 276.66193,31.2 275.50993,29.952 C274.30993,28.656 273.42193,27.264 272.84593,25.776 C272.26993,24.288 271.98193,22.872 271.98193,21.528 L271.98193,15.048 C271.98193,13.704 272.26993,12.24 272.84593,10.656 Z M279.61393,39.24 L317.62993,39.24 L317.62993,64.152 L307.76593,64.152 L307.76593,47.88 L279.61393,47.88 L279.61393,39.24 Z M281.77393,20.952 C281.77393,22.392 282.16993,23.592 282.96193,24.552 C283.75393,25.512 284.98993,25.992 286.66993,25.992 C288.54193,25.992 289.86193,25.512 290.62993,24.552 C291.39793,23.592 291.78193,22.392 291.78193,20.952 L291.78193,15.84 C291.78193,14.256 291.39793,12.924 290.62993,11.844 C289.86193,10.764 288.54193,10.224 286.66993,10.224 C284.98993,10.224 283.75393,10.752 282.96193,11.808 C282.16993,12.864 281.77393,14.184 281.77393,15.768 L281.77393,20.952 Z M301.64593,20.808 L307.76593,20.808 L307.76593,16.56 L301.64593,16.56 L301.64593,20.808 Z" id="Shape"></path>
                <path d="M331.280251,45.72 C332.048251,44.04 333.104251,42.648 334.448251,41.544 C335.744251,40.392 337.292251,39.54 339.092251,38.988 C340.892251,38.436 342.824251,38.16 344.888251,38.16 L350.864251,38.16 C355.328251,38.16 359.048251,39.276 362.024251,41.508 C365.000251,43.74 366.488251,47.088 366.488251,51.552 C366.488251,56.016 365.024251,59.292 362.096251,61.38 C359.168251,63.468 355.424251,64.512 350.864251,64.512 L344.960251,64.512 C342.944251,64.512 341.036251,64.26 339.236251,63.756 C337.436251,63.252 335.864251,62.472 334.520251,61.416 C333.128251,60.312 332.048251,58.956 331.280251,57.348 C330.512251,55.74 330.128251,53.808 330.128251,51.552 C330.128251,49.344 330.512251,47.4 331.280251,45.72 Z M320.840251,29.736 C322.424251,28.152 323.984251,26.616 325.520251,25.128 C327.056251,23.64 328.520251,22.248 329.912251,20.952 C331.256251,19.608 332.504251,18.372 333.656251,17.244 C334.808251,16.116 335.792251,15.072 336.608251,14.112 C336.800251,13.872 336.968251,13.632 337.112251,13.392 C337.256251,13.152 337.328251,12.888 337.328251,12.6 L322.928251,12.6 L322.928251,4.104 L348.488251,4.104 L348.488251,8.208 C348.488251,9.648 348.452251,10.836 348.380251,11.772 C348.308251,12.708 348.152251,13.56 347.912251,14.328 C347.624251,15.096 347.240251,15.876 346.760251,16.668 C346.280251,17.46 345.608251,18.384 344.744251,19.44 L343.880251,20.52 L354.032251,29.232 L347.984251,36.144 L337.328251,27.144 C336.176251,28.44 334.712251,29.904 332.936251,31.536 C331.160251,33.168 329.192251,34.968 327.032251,36.936 L320.840251,29.736 Z M355.400251,1.368 L365.264251,1.368 L365.264251,14.472 L372.680251,14.472 L372.680251,23.112 L365.264251,23.112 L365.264251,37.008 L355.400251,37.008 L355.400251,1.368 Z M340.136251,51.552 C340.136251,52.992 340.580251,54.108 341.468251,54.9 C342.356251,55.692 344.096251,56.088 346.688251,56.088 L349.280251,56.088 C351.872251,56.088 353.708251,55.704 354.788251,54.936 C355.868251,54.168 356.408251,53.04 356.408251,51.552 C356.408251,50.16 355.844251,48.984 354.716251,48.024 C353.588251,47.064 351.728251,46.584 349.136251,46.584 L346.616251,46.584 C344.216251,46.584 342.536251,47.028 341.576251,47.916 C340.616251,48.804 340.136251,50.016 340.136251,51.552 Z" id="Shape"></path>
            </g>
            <g id="🌈" transform="translate(380.6803, 0)" fill="url(#pattern-1)">
                <polygon points="0 0 82.265625 0 82.265625 82.265625 0 82.265625"></polygon>
            </g>
        </g>
    </g>
</svg>