<?xml version="1.0" encoding="UTF-8"?>
<svg width="458px" height="82px" viewBox="0 0 458 82" version="1.1" xmlns="http://www.w3.org/2000/svg" xmlns:xlink="http://www.w3.org/1999/xlink">
    <title>district-member-logo</title>
    <defs>
        <pattern id="pattern-1" patternUnits="objectBoundingBox" x="-3.19170669e-14%" width="100%" height="100%">
            <use xlink:href="#image-2" transform="scale(0.452008929,0.452008929)"></use>
        </pattern>
    </defs>
    <g id="district-member-logo" stroke="none" stroke-width="1" fill="none" fill-rule="evenodd">
        <g id="Group">
            <g id="대청비전-달란트" transform="translate(0, 9)" fill="#212121" fill-rule="nonzero">
                <path d="M24.336,1.368 L34.344,1.368 L34.344,22.248 L37.44,22.248 L37.44,1.368 L46.944,1.368 L46.944,63.288 L37.44,63.288 L37.44,31.536 L34.344,31.536 L34.344,61.992 L24.336,61.992 L24.336,1.368 Z M20.952,4.608 L20.952,13.32 L9.864,13.32 L9.864,43.992 C13.224,43.8 15.864,43.452 17.784,42.948 C19.704,42.444 21.24,41.904 22.392,41.328 L22.392,50.112 C20.424,51.072 18.336,51.744 16.128,52.128 C13.92,52.512 11.664,52.704 9.36,52.704 L0,52.704 L0,4.608 L20.952,4.608 Z" id="Shape"></path>
                <path d="M62.3223216,45.36 C63.0903216,43.68 64.1463216,42.264 65.4903216,41.112 C66.7863216,39.96 68.3343216,39.084 70.1343216,38.484 C71.9343216,37.884 73.8663216,37.584 75.9303216,37.584 L81.9063216,37.584 C86.3703216,37.584 90.0903216,38.748 93.0663216,41.076 C96.0423216,43.404 97.5303216,46.8 97.5303216,51.264 C97.5303216,55.728 96.0663216,59.052 93.1383216,61.236 C90.2103216,63.42 86.4663216,64.512 81.9063216,64.512 L76.0023216,64.512 C73.9863216,64.512 72.0783216,64.248 70.2783216,63.72 C68.4783216,63.192 66.9063216,62.376 65.5623216,61.272 C64.1703216,60.168 63.0903216,58.788 62.3223216,57.132 C61.5543216,55.476 61.1703216,53.52 61.1703216,51.264 C61.1703216,49.056 61.5543216,47.088 62.3223216,45.36 Z M54.6183216,26.784 C56.0583216,25.44 57.4743216,24.144 58.8663216,22.896 C60.2103216,21.6 61.4943216,20.364 62.7183216,19.188 C63.9423216,18.012 65.0103216,16.896 65.9223216,15.84 C66.2103216,15.504 66.4383216,15.204 66.6063216,14.94 C66.7743216,14.676 66.8583216,14.376 66.8583216,14.04 L52.5303216,14.04 L52.5303216,5.544 L60.0183216,5.544 L60.0183216,0 L70.0263216,0 L70.0263216,5.544 L78.0903216,5.544 L78.0903216,9.576 C78.0903216,11.016 78.0663216,12.24 78.0183216,13.248 C77.9703216,14.256 77.8263216,15.168 77.5863216,15.984 C77.3463216,16.8 76.9623216,17.628 76.4343216,18.468 C75.9063216,19.308 75.1863216,20.256 74.2743216,21.312 L73.6263216,22.032 L83.6343216,30.312 L77.5863216,37.224 L67.0743216,28.296 C65.7783216,29.64 64.2423216,31.152 62.4663216,32.832 C60.6903216,34.512 58.7223216,36.24 56.5623216,38.016 L50.2983216,30.816 C51.6903216,29.472 53.1303216,28.128 54.6183216,26.784 Z M79.6023216,15.984 L87.1623216,15.984 L87.1623216,1.368 L97.0263216,1.368 L97.0263216,36.288 L87.1623216,36.288 L87.1623216,24.624 L79.6023216,24.624 L79.6023216,15.984 Z M71.1783216,51.264 C71.1783216,52.8 71.6223216,53.988 72.5103216,54.828 C73.3983216,55.668 75.1383216,56.088 77.7303216,56.088 L80.3223216,56.088 C82.9143216,56.088 84.7503216,55.68 85.8303216,54.864 C86.9103216,54.048 87.4503216,52.848 87.4503216,51.264 C87.4503216,49.68 86.8863216,48.408 85.7583216,47.448 C84.6303216,46.488 82.7703216,46.008 80.1783216,46.008 L77.6583216,46.008 C75.2583216,46.008 73.5783216,46.488 72.6183216,47.448 C71.6583216,48.408 71.1783216,49.68 71.1783216,51.264 Z" id="Shape"></path>
                <path d="M103.908643,4.536 L113.844643,4.536 L113.844643,21.384 L121.548643,21.384 L121.548643,4.536 L131.412643,4.536 L131.412643,52.632 L103.908643,52.632 L103.908643,4.536 Z M148.404643,1.368 L148.404643,63.288 L138.540643,63.288 L138.540643,1.368 L148.404643,1.368 Z M113.844643,29.808 L113.844643,44.208 L121.548643,44.208 L121.548643,29.808 L113.844643,29.808 Z" id="Shape"></path>
                <path d="M157.518965,27.576 C159.054965,26.04 160.518965,24.552 161.910965,23.112 C163.302965,21.624 164.586965,20.232 165.762965,18.936 C166.938965,17.64 167.934965,16.44 168.750965,15.336 C169.086965,14.904 169.326965,14.52 169.470965,14.184 C169.614965,13.848 169.686965,13.488 169.686965,13.104 L155.142965,13.104 L155.142965,4.608 L180.702965,4.608 L180.702965,8.64 C180.702965,10.08 180.666965,11.316 180.594965,12.348 C180.522965,13.38 180.366965,14.328 180.126965,15.192 C179.838965,16.056 179.454965,16.92 178.974965,17.784 C178.494965,18.648 177.822965,19.632 176.958965,20.736 L175.518965,22.536 L186.246965,31.68 L180.198965,38.592 L169.182965,29.304 C167.982965,30.792 166.518965,32.424 164.790965,34.2 C163.062965,35.976 161.214965,37.704 159.246965,39.384 L152.982965,32.184 C154.470965,30.696 155.982965,29.16 157.518965,27.576 Z M189.774965,16.056 L189.774965,1.368 L199.638965,1.368 L199.638965,46.944 L189.774965,46.944 L189.774965,24.768 L181.710965,24.768 L181.710965,16.056 L189.774965,16.056 Z M173.934965,42.696 L173.934965,55.368 L200.070965,55.368 L200.070965,64.008 L164.070965,64.008 L164.070965,42.696 L173.934965,42.696 Z" id="Shape"></path>
                <path d="M227.083608,42.336 L227.083608,33.912 L262.651608,33.912 L262.651608,52.92 L236.587608,52.92 L236.587608,55.296 L263.443608,55.296 L263.443608,63.72 L227.083608,63.72 L227.083608,44.64 L253.147608,44.64 L253.147608,42.336 L227.083608,42.336 Z M247.171608,2.448 L247.171608,11.088 L231.043608,11.088 L231.043608,21.6 L236.227608,21.6 C236.755608,21.648 237.283608,21.672 237.811608,21.672 C239.491608,21.672 241.399608,21.468 243.535608,21.06 C245.671608,20.652 247.915608,19.92 250.267608,18.864 L250.267608,27.648 C248.347608,28.752 246.055608,29.472 243.391608,29.808 C240.727608,30.144 238.243608,30.312 235.939608,30.312 L221.179608,30.312 L221.179608,2.448 L247.171608,2.448 Z M252.715608,31.752 L252.715608,1.368 L262.651608,1.368 L262.651608,12.096 L269.995608,12.096 L269.995608,20.736 L262.651608,20.736 L262.651608,31.752 L252.715608,31.752 Z" id="Shape"></path>
                <path d="M272.62993,17.64 L288.97393,17.64 L288.97393,12.6 L272.62993,12.6 L272.62993,3.96 L298.83793,3.96 L298.83793,26.28 L282.56593,26.28 L282.56593,32.112 L286.66993,32.112 C287.19793,32.16 287.72593,32.184 288.25393,32.184 C290.07793,32.184 292.26193,31.98 294.80593,31.572 C297.34993,31.164 299.77393,30.432 302.07793,29.376 L302.07793,38.16 C301.11793,38.736 299.97793,39.192 298.65793,39.528 C297.33793,39.864 295.95793,40.128 294.51793,40.32 C293.07793,40.512 291.63793,40.632 290.19793,40.68 C288.75793,40.728 287.46193,40.752 286.30993,40.752 L272.62993,40.752 L272.62993,17.64 Z M313.95793,1.368 L313.95793,19.08 L321.30193,19.08 L321.30193,27.72 L313.95793,27.72 L313.95793,46.584 L304.02193,46.584 L304.02193,1.368 L313.95793,1.368 Z M278.31793,64.008 L278.31793,45.288 L288.18193,45.288 L288.18193,55.368 L314.31793,55.368 L314.31793,64.008 L278.31793,64.008 Z" id="Shape"></path>
                <path d="M364.544251,4.608 L364.544251,13.176 L339.272251,13.176 L339.272251,19.08 L363.608251,19.08 L363.608251,27.792 L339.272251,27.792 L339.272251,33.552 L365.480251,33.552 L365.480251,42.192 L329.480251,42.192 L329.480251,4.608 L364.544251,4.608 Z M322.568251,57.6 L322.568251,48.96 L371.960251,48.96 L371.960251,57.6 L322.568251,57.6 Z" id="Shape"></path>
            </g>
            <g id="🪙" transform="translate(379.9603, 0)" fill="url(#pattern-1)">
                <polygon points="0 0 82.265625 0 82.265625 82.265625 0 82.265625"></polygon>
            </g>
        </g>
    </g>
</svg>