<?xml version="1.0" encoding="UTF-8"?>
<svg width="414px" height="64px" viewBox="0 0 414 64" version="1.1" xmlns="http://www.w3.org/2000/svg" xmlns:xlink="http://www.w3.org/1999/xlink">
    <title>empty</title>
    <g id="empty" stroke="none" stroke-width="1" fill="none" fill-rule="evenodd">
        <g id="텅!-아직-없어요-:(" fill="#78716C" fill-rule="nonzero">
            <path d="M8.856,44.784 C9.624,43.2 10.68,41.88 12.024,40.824 C13.368,39.72 14.94,38.892 16.74,38.34 C18.54,37.788 20.448,37.512 22.464,37.512 L28.44,37.512 C30.648,37.512 32.712,37.788 34.632,38.34 C36.552,38.892 38.208,39.696 39.6,40.752 C40.992,41.808 42.096,43.14 42.912,44.748 C43.728,46.356 44.136,48.216 44.136,50.328 C44.136,54.456 42.66,57.624 39.708,59.832 C36.756,62.04 33,63.144 28.44,63.144 L22.536,63.144 C20.472,63.144 18.54,62.868 16.74,62.316 C14.94,61.764 13.368,60.936 12.024,59.832 C10.68,58.776 9.624,57.444 8.856,55.836 C8.088,54.228 7.704,52.392 7.704,50.328 C7.704,48.264 8.088,46.416 8.856,44.784 Z M0,1.8 L26.712,1.8 L26.712,10.44 L9.864,10.44 L9.864,13.536 L24.408,13.536 L24.408,22.176 L9.864,22.176 L9.864,25.632 L15.048,25.632 C15.72,25.68 16.392,25.704 17.064,25.704 C18.696,25.704 20.64,25.56 22.896,25.272 C25.152,24.984 27.456,24.312 29.808,23.256 L29.808,32.04 C28.848,32.616 27.732,33.06 26.46,33.372 C25.188,33.684 23.88,33.912 22.536,34.056 C21.192,34.2 19.848,34.284 18.504,34.308 C17.16,34.332 15.912,34.344 14.76,34.344 L0,34.344 L0,1.8 Z M33.768,13.176 L33.768,0 L43.632,0 L43.632,37.08 L33.768,37.08 L33.768,21.816 L26.784,21.816 L26.784,13.176 L33.768,13.176 Z M17.712,50.4 C17.712,51.696 18.156,52.74 19.044,53.532 C19.932,54.324 21.672,54.72 24.264,54.72 L26.856,54.72 C29.448,54.72 31.296,54.36 32.4,53.64 C33.504,52.92 34.056,51.84 34.056,50.4 C34.056,48.96 33.48,47.856 32.328,47.088 C31.176,46.32 29.304,45.936 26.712,45.936 L24.192,45.936 C21.744,45.936 20.052,46.332 19.116,47.124 C18.18,47.916 17.712,49.008 17.712,50.4 Z" id="Shape"></path>
            <path d="M52.9623216,42.984 L51.8823216,3.24 L63.2583216,3.24 L61.8183216,42.984 L52.9623216,42.984 Z M62.0343216,61.92 L52.6743216,61.92 L52.6743216,49.608 L62.0343216,49.608 L62.0343216,61.92 Z" id="Shape"></path>
            <path d="M82.5669648,34.056 L82.5669648,19.872 C82.5669648,14.064 83.8389648,9.672 86.3829648,6.696 C88.9269648,3.72 92.5029648,2.208 97.1109648,2.16 C101.670965,2.208 105.282965,3.72 107.946965,6.696 C110.610965,9.672 111.942965,14.04 111.942965,19.8 L111.942965,34.128 C111.942965,39.744 110.514965,43.98 107.658965,46.836 C104.802965,49.692 101.286965,51.12 97.1109648,51.12 C95.0949648,51.12 93.1989648,50.76 91.4229648,50.04 C89.6469648,49.32 88.1109648,48.24 86.8149648,46.8 C85.4709648,45.408 84.4269648,43.644 83.6829648,41.508 C82.9389648,39.372 82.5669648,36.888 82.5669648,34.056 Z M115.686965,0 L125.550965,0 L125.550965,21.024 L132.966965,21.024 L132.966965,29.664 L125.550965,29.664 L125.550965,61.92 L115.686965,61.92 L115.686965,0 Z M93.7269648,40.536 C94.4469648,41.832 95.5029648,42.48 96.8949648,42.48 C97.0389648,42.48 97.1829648,42.48 97.3269648,42.48 C98.6709648,42.48 99.7989648,41.832 100.710965,40.536 C101.622965,39.24 102.078965,36.624 102.078965,32.688 L102.078965,21.168 C102.078965,17.28 101.670965,14.592 100.854965,13.104 C100.038965,11.616 98.7909648,10.872 97.1109648,10.872 C95.3829648,10.872 94.1709648,11.688 93.4749648,13.32 C92.7789648,14.952 92.4309648,17.568 92.4309648,21.168 L92.4309648,32.688 C92.4309648,36.48 92.8629648,39.096 93.7269648,40.536 Z" id="Shape"></path>
            <path d="M138.553286,23.76 C140.089286,22.272 141.553286,20.88 142.945286,19.584 C144.289286,18.24 145.537286,17.004 146.689286,15.876 C147.841286,14.748 148.825286,13.704 149.641286,12.744 C149.833286,12.504 150.001286,12.264 150.145286,12.024 C150.289286,11.784 150.361286,11.52 150.361286,11.232 L135.961286,11.232 L135.961286,2.736 L161.521286,2.736 L161.521286,6.84 C161.521286,8.28 161.485286,9.468 161.413286,10.404 C161.341286,11.34 161.185286,12.192 160.945286,12.96 C160.657286,13.728 160.273286,14.508 159.793286,15.3 C159.313286,16.092 158.641286,17.016 157.777286,18.072 L156.913286,19.152 L167.065286,27.864 L161.017286,34.776 L150.361286,25.776 C149.209286,27.072 147.745286,28.536 145.969286,30.168 C144.193286,31.8 142.225286,33.6 140.065286,35.568 L133.729286,28.368 C135.361286,26.784 136.969286,25.248 138.553286,23.76 Z M142.513286,37.872 L180.529286,37.872 L180.529286,62.784 L170.665286,62.784 L170.665286,46.512 L142.513286,46.512 L142.513286,37.872 Z M180.457286,0 L180.457286,35.28 L170.593286,35.28 L170.593286,0 L180.457286,0 Z" id="Shape"></path>
            <path d="M201.49393,13.68 C201.49393,12.336 201.78193,10.884 202.35793,9.324 C202.93393,7.764 203.82193,6.336 205.02193,5.04 C206.17393,3.696 207.67393,2.592 209.52193,1.728 C211.36993,0.864 213.56593,0.432 216.10993,0.432 C218.46193,0.432 220.51393,0.78 222.26593,1.476 C224.01793,2.172 225.49393,3.072 226.69393,4.176 C227.89393,5.232 228.84193,6.432 229.53793,7.776 C230.23393,9.12 230.70193,10.44 230.94193,11.736 L237.34993,11.736 L237.34993,0 L247.14193,0 L247.14193,30.24 L237.34993,30.24 L237.34993,20.088 L230.72593,20.088 C230.38993,21.288 229.86193,22.488 229.14193,23.688 C228.42193,24.888 227.48593,25.944 226.33393,26.856 C225.13393,27.816 223.68193,28.584 221.97793,29.16 C220.27393,29.736 218.31793,30.024 216.10993,30.024 C213.56593,30.024 211.36993,29.604 209.52193,28.764 C207.67393,27.924 206.17393,26.88 205.02193,25.632 C203.82193,24.336 202.93393,22.944 202.35793,21.456 C201.78193,19.968 201.49393,18.552 201.49393,17.208 L201.49393,13.68 Z M216.61393,32.976 L216.61393,40.536 L219.85393,40.536 L219.85393,32.976 L229.28593,32.976 L229.28593,55.872 C229.76593,55.248 230.23393,54.636 230.68993,54.036 C231.14593,53.436 231.56593,52.848 231.94993,52.272 C232.38193,51.744 232.76593,51.216 233.10193,50.688 L234.03793,49.32 C234.46993,48.504 234.79393,47.688 235.00993,46.872 C235.22593,46.056 235.33393,45.096 235.33393,43.992 L235.33393,32.976 L244.90993,32.976 L244.90993,44.28 C244.90993,45.24 244.86193,46.176 244.76593,47.088 C244.66993,48 244.50193,48.744 244.26193,49.32 C245.41393,50.376 246.72193,51.6 248.18593,52.992 C249.64993,54.384 251.19793,55.92 252.82993,57.6 L246.63793,63.864 C245.77393,63.048 244.99393,62.316 244.29793,61.668 C243.60193,61.02 242.98993,60.432 242.46193,59.904 C241.93393,59.376 241.45393,58.908 241.02193,58.5 C240.58993,58.092 240.20593,57.72 239.86993,57.384 C239.43793,58.104 238.75393,59.064 237.81793,60.264 C236.88193,61.464 235.76593,62.736 234.46993,64.08 L229.28593,59.616 L229.28593,62.712 L207.10993,62.712 L207.10993,32.976 L216.61393,32.976 Z M212.50993,20.232 C213.27793,21.192 214.50193,21.672 216.18193,21.672 C218.05393,21.672 219.37393,21.192 220.14193,20.232 C220.90993,19.272 221.29393,18.072 221.29393,16.632 L221.29393,14.4 C221.29393,12.864 220.90993,11.556 220.14193,10.476 C219.37393,9.396 218.05393,8.856 216.18193,8.856 C214.50193,8.856 213.26593,9.384 212.47393,10.44 C211.68193,11.496 211.28593,12.792 211.28593,14.328 L211.28593,16.704 C211.28593,18.144 211.69393,19.32 212.50993,20.232 Z M219.85393,54.288 L219.85393,48.6 L216.61393,48.6 L216.61393,54.288 L219.85393,54.288 Z" id="Shape"></path>
            <path d="M253.232251,19.872 C253.232251,14.064 254.504251,9.672 257.048251,6.696 C259.592251,3.72 263.168251,2.208 267.776251,2.16 C272.336251,2.208 275.948251,3.72 278.612251,6.696 C281.276251,9.672 282.608251,14.04 282.608251,19.8 L282.608251,20.952 L288.584251,20.952 L288.584251,0 L298.376251,0 L298.376251,61.92 L288.584251,61.92 L288.584251,29.592 L282.608251,29.592 L282.608251,34.128 C282.608251,39.744 281.180251,43.98 278.324251,46.836 C275.468251,49.692 271.952251,51.12 267.776251,51.12 C265.760251,51.12 263.864251,50.76 262.088251,50.04 C260.312251,49.32 258.776251,48.24 257.480251,46.8 C256.136251,45.408 255.092251,43.644 254.348251,41.508 C253.604251,39.372 253.232251,36.888 253.232251,34.056 L253.232251,19.872 Z M264.392251,40.536 C265.112251,41.832 266.168251,42.48 267.560251,42.48 C267.704251,42.48 267.848251,42.48 267.992251,42.48 C269.336251,42.48 270.464251,41.832 271.376251,40.536 C272.288251,39.24 272.744251,36.624 272.744251,32.688 L272.744251,21.168 C272.744251,17.28 272.336251,14.592 271.520251,13.104 C270.704251,11.616 269.456251,10.872 267.776251,10.872 C266.048251,10.872 264.836251,11.688 264.140251,13.32 C263.444251,14.952 263.096251,17.568 263.096251,21.168 L263.096251,32.688 C263.096251,36.48 263.528251,39.096 264.392251,40.536 Z" id="Shape"></path>
            <path d="M314.402573,47.592 L314.402573,35.496 C313.394573,34.2 312.614573,32.748 312.062573,31.14 C311.510573,29.532 311.234573,27.912 311.234573,26.28 L311.234573,18.144 C311.234573,16.272 311.582573,14.352 312.278573,12.384 C312.974573,10.416 313.994573,8.64 315.338573,7.056 C316.682573,5.472 318.338573,4.164 320.306573,3.132 C322.274573,2.1 324.530573,1.56 327.074573,1.512 L328.946573,1.512 C331.490573,1.56 333.758573,2.088 335.750573,3.096 C337.742573,4.104 339.434573,5.4 340.826573,6.984 C342.218573,8.568 343.286573,10.344 344.030573,12.312 C344.774573,14.28 345.146573,16.224 345.146573,18.144 L345.146573,26.28 C345.146573,27.96 344.858573,29.592 344.282573,31.176 C343.706573,32.76 342.914573,34.2 341.906573,35.496 L342.122573,35.496 L342.122573,47.592 L352.778573,47.592 L352.778573,56.232 L303.386573,56.232 L303.386573,47.592 L314.402573,47.592 Z M321.098573,18.072 L321.098573,26.136 C321.098573,28.008 321.674573,29.592 322.826573,30.888 C323.978573,32.184 325.418573,32.832 327.146573,32.832 L328.874573,32.832 C330.698573,32.832 332.222573,32.196 333.446573,30.924 C334.670573,29.652 335.282573,28.056 335.282573,26.136 L335.282573,18.072 C335.282573,16.248 334.682573,14.568 333.482573,13.032 C332.282573,11.496 330.746573,10.728 328.874573,10.728 L327.146573,10.728 C325.274573,10.728 323.798573,11.448 322.718573,12.888 C321.638573,14.328 321.098573,15.864 321.098573,17.496 C321.098573,17.688 321.098573,17.88 321.098573,18.072 Z M332.186573,47.592 L332.186573,41.688 C331.610573,41.832 331.058573,41.916 330.530573,41.94 C330.002573,41.964 329.474573,41.976 328.946573,41.976 L327.002573,41.976 C326.522573,41.976 326.066573,41.964 325.634573,41.94 C325.202573,41.916 324.770573,41.856 324.338573,41.76 L324.338573,47.592 L332.186573,47.592 Z" id="Shape"></path>
            <path d="M383.679216,11.808 L383.679216,24.192 L373.671216,24.192 L373.671216,11.808 L383.679216,11.808 Z M373.671216,54.072 L373.671216,41.76 L383.679216,41.76 L383.679216,54.072 L373.671216,54.072 Z" id="Shape"></path>
            <path d="M389.553538,39.384 L389.553538,24.264 C389.553538,21.096 389.973538,18.168 390.813538,15.48 C391.653538,12.792 392.889538,10.44 394.521538,8.424 C396.153538,6.456 398.133538,4.908 400.461538,3.78 C402.789538,2.652 405.465538,2.088 408.489538,2.088 L408.489538,10.872 C405.801538,10.872 403.629538,12.024 401.973538,14.328 C400.317538,16.632 399.489538,20.232 399.489538,25.128 L399.489538,38.88 C399.489538,43.92 400.305538,47.796 401.937538,50.508 C403.569538,53.22 405.753538,54.576 408.489538,54.576 L408.489538,63.288 C405.273538,63.288 402.477538,62.688 400.101538,61.488 C397.725538,60.288 395.745538,58.608 394.161538,56.448 C392.625538,54.288 391.473538,51.756 390.705538,48.852 C389.937538,45.948 389.553538,42.792 389.553538,39.384 Z" id="Path"></path>
        </g>
    </g>
</svg>